<?xml version="1.0" encoding="utf-8"?>
<!-- Generator: Adobe Illustrator 16.0.0, SVG Export Plug-In . SVG Version: 6.00 Build 0)  -->
<!DOCTYPE svg PUBLIC "-//W3C//DTD SVG 1.1//EN" "http://www.w3.org/Graphics/SVG/1.1/DTD/svg11.dtd">
<svg version="1.1" id="Layer_1" xmlns="http://www.w3.org/2000/svg" xmlns:xlink="http://www.w3.org/1999/xlink" x="0px" y="0px"
	 width="248px" height="248px" viewBox="0 0 248 248" enable-background="new 0 0 248 248" xml:space="preserve">
<g>
	<g>
		<path fill="#414042" d="M40.204,166.181c-8.336-8.337-12.793-18.4-12.793-39.244v-0.289c0-30.331,15.956-54.481,40.969-54.481
			c11.501,0,20.27,4.457,29.038,11.644l-4.742,5.75c-7.763-6.901-15.382-10.638-24.869-10.638c-20.27,0-32.921,20.988-32.921,49.308
			v2.874c7.044-11.932,17.105-18.687,31.482-18.687c18.256,0,34.644,12.507,34.644,30.475v0.288
			c0,18.976-15.382,33.063-35.219,33.063C55.442,176.244,46.242,172.219,40.204,166.181z M93.249,143.468v-0.287
			c0-13.802-11.354-24.15-27.312-24.15c-16.531,0-28.033,12.505-28.033,24.87v0.287c0,14.374,12.22,25.3,28.464,25.3
			S93.249,157.699,93.249,143.468z"/>
	</g>
	<g>
		<path fill="#414042" d="M118.396,98.761v-0.287c0-13.514,8.914-25.733,22.281-25.733c13.227,0,21.996,12.219,21.996,25.444v0.289
			c0,13.513-8.914,25.73-22.281,25.73C127.166,124.205,118.396,112.129,118.396,98.761z M125.873,98.186v0.289
			c0,11.356,6.756,19.548,14.805,19.548c8.482,0,14.52-8.48,14.52-19.262v-0.287c0-11.214-6.756-19.552-14.805-19.552
			C131.908,78.922,125.873,87.692,125.873,98.186z M202.779,73.892h7.764l-38.383,52.183l-35.506,48.444h-7.764l38.096-51.75
			L202.779,73.892z M176.762,150.225v-0.288c0-13.514,8.912-25.732,22.279-25.732c13.227,0,21.996,12.218,21.996,25.445v0.287
			c0,13.513-8.914,25.732-22.283,25.732C185.529,175.669,176.762,163.594,176.762,150.225z M213.563,150.225v-0.288
			c0-11.212-6.758-19.55-14.809-19.55c-8.48,0-14.518,8.769-14.518,19.263v0.287c0,11.356,6.756,19.551,14.805,19.551
			C207.523,169.487,213.563,161.006,213.563,150.225z"/>
	</g>
</g>
<g>
	<g>
		<path fill="#DD2242" d="M124.138,248.41c-0.004,0-0.006,0-0.012,0c-26.236-0.002-51.372-8.155-72.691-23.574
			c-26.879-19.441-44.577-48.188-49.837-80.943c-5.258-32.755,2.554-65.598,21.996-92.477C46.881,19.22,84.538,0,124.321,0
			c26.234,0,51.371,8.151,72.693,23.574c26.879,19.442,44.578,48.189,49.838,80.943c5.258,32.755-2.555,65.598-21.998,92.479
			C201.568,229.189,163.916,248.41,124.138,248.41z M124.321,13.975c-35.314,0-68.736,17.058-89.404,45.631
			c-17.254,23.855-24.187,53.001-19.52,82.072c4.667,29.068,20.373,54.581,44.229,71.835c18.921,13.687,41.226,20.921,64.502,20.923
			c0.002,0,0.008,0,0.01,0c35.309,0.002,68.725-17.057,89.393-45.63c17.256-23.857,24.188-53.004,19.521-82.073
			c-4.668-29.069-20.375-54.581-44.23-71.835C169.898,21.209,147.596,13.975,124.321,13.975z"/>
	</g>
	<g>
		
			<rect x="117.238" y="6.995" transform="matrix(0.8103 0.586 -0.586 0.8103 96.3452 -49.235)" fill="#DD2242" width="13.974" height="234.418"/>
	</g>
</g>
</svg>
