<?xml version="1.0" encoding="utf-8"?>
<!-- Generator: Adobe Illustrator 16.0.0, SVG Export Plug-In . SVG Version: 6.00 Build 0)  -->
<!DOCTYPE svg PUBLIC "-//W3C//DTD SVG 1.1//EN" "http://www.w3.org/Graphics/SVG/1.1/DTD/svg11.dtd">
<svg version="1.1" id="Layer_1" xmlns="http://www.w3.org/2000/svg" xmlns:xlink="http://www.w3.org/1999/xlink" x="0px" y="0px"
	 width="557.411px" height="227.395px" viewBox="0 0 557.411 227.395" enable-background="new 0 0 557.411 227.395"
	 xml:space="preserve">
<g>
	<rect fill="#1552AB" width="557.411" height="227.395"/>
	<g>
		<g>
			<g>
				<path fill="#FFFFFF" d="M29.85,0h11.049l29.85,68.328H58.152l-6.881-16.381H19.19l-6.978,16.381H0L29.85,0z M46.91,41.386
					L35.181,14.247l-11.63,27.139H46.91z"/>
			</g>
			<g>
				<path fill="#FFFFFF" d="M76.162,59.815l6.176-7.343c5.589,4.839,11.265,7.593,18.441,7.593c6.34,0,10.347-3.004,10.347-7.343
					v-0.167c0-4.173-2.336-6.423-13.185-8.928c-12.433-3.004-19.443-6.676-19.443-17.441v-0.167
					c0-10.014,8.346-16.939,19.945-16.939c8.51,0,15.271,2.586,21.193,7.343l-5.506,7.761c-5.257-3.923-10.514-6.008-15.855-6.008
					c-6.008,0-9.513,3.087-9.513,6.925v0.166c0,4.506,2.671,6.509,13.935,9.18c12.351,3.004,18.693,7.426,18.693,17.106v0.168
					c0,10.929-8.595,17.438-20.86,17.438C91.599,69.162,83.172,66.075,76.162,59.815z"/>
			</g>
			<g>
				<path fill="#FFFFFF" d="M126.651,59.815l6.174-7.343c5.589,4.839,11.264,7.593,18.441,7.593c6.342,0,10.347-3.004,10.347-7.343
					v-0.167c0-4.173-2.336-6.423-13.184-8.928c-12.434-3.004-19.442-6.676-19.442-17.441v-0.167
					c0-10.014,8.344-16.939,19.943-16.939c8.51,0,15.271,2.586,21.195,7.343l-5.508,7.761c-5.256-3.923-10.513-6.008-15.853-6.008
					c-6.008,0-9.513,3.087-9.513,6.925v0.166c0,4.506,2.668,6.509,13.935,9.18c12.348,3.004,18.691,7.426,18.691,17.106v0.168
					c0,10.929-8.596,17.438-20.86,17.438C142.088,69.162,133.659,66.075,126.651,59.815z"/>
			</g>
			<g>
				<path fill="#FFFFFF" d="M179.308,39.288v-0.166c0-16.438,12.683-30.208,30.623-30.208c17.942,0,30.458,13.602,30.458,30.042
					v0.167c0,16.438-12.683,30.207-30.625,30.207C191.822,69.329,179.308,55.726,179.308,39.288z M229.624,39.288v-0.166
					c0-11.35-8.26-20.777-19.86-20.777c-11.599,0-19.693,9.261-19.693,20.611v0.167c0,11.348,8.261,20.693,19.86,20.693
					S229.624,50.638,229.624,39.288z"/>
			</g>
			<g>
				<path fill="#FFFFFF" d="M248.152,39.288v-0.166c0-16.606,12.434-30.208,30.124-30.208c10.765,0,17.273,3.756,22.865,9.096
					l-6.595,7.595c-4.671-4.339-9.678-7.26-16.354-7.26c-11.098,0-19.277,9.178-19.277,20.611v0.167
					c0,11.433,8.097,20.693,19.277,20.693c7.175,0,11.766-2.837,16.774-7.509l6.59,6.675c-6.091,6.343-12.768,10.348-23.699,10.348
					C260.835,69.329,248.152,56.061,248.152,39.288z"/>
			</g>
			<g>
				<path fill="#FFFFFF" d="M310.822,9.916h10.264v58.413h-10.264V9.916z"/>
			</g>
			<g>
				<path fill="#FFFFFF" d="M355.297,9.5h9.515l25.698,58.828h-10.846l-5.924-14.104H346.12l-6.008,14.104h-10.514L355.297,9.5z
					 M369.983,45.129l-10.092-23.365l-10.016,23.365H369.983z"/>
			</g>
			<g>
				<path fill="#FFFFFF" d="M405.285,19.429h-18.522V9.916h47.396v9.513h-18.527v48.899h-10.347V19.429z"/>
			</g>
			<g>
				<path fill="#FFFFFF" d="M444.268,9.916h43.307v9.178h-33.043v15.188h29.291v9.18h-29.291V59.15h33.463v9.178h-43.727V9.916z"/>
			</g>
			<g>
				<path fill="#FFFFFF" d="M498.092,9.916h21.779c18.355,0,31.041,12.6,31.041,29.04v0.167c0,16.438-12.686,29.206-31.041,29.206
					h-21.779V9.916z M508.356,19.262v39.719h11.516c12.266,0,20.279-8.26,20.279-19.693v-0.166c0-11.433-8.014-19.86-20.279-19.86
					H508.356z"/>
			</g>
		</g>
		<g>
			<g>
				<path fill="#FFFFFF" d="M5.815,85.28h30.432c7.755,0,13.859,2.133,17.736,6.01c3.006,3.004,4.556,6.687,4.556,11.242v0.193
					c0,8.143-4.652,12.503-9.692,15.119c7.947,2.713,13.471,7.27,13.471,16.478v0.192c0,12.116-9.981,18.607-25.101,18.607H5.815
					V85.28z M46.618,104.471c0-5.329-4.265-8.626-11.921-8.626H17.543v18.026h16.282c7.656,0,12.792-3.003,12.792-9.206V104.471z
					 M36.442,123.951H17.543v18.607h19.77c8.143,0,13.084-3.196,13.084-9.305v-0.192C50.397,127.345,45.843,123.951,36.442,123.951z
					"/>
			</g>
			<g>
				<path fill="#FFFFFF" d="M72.148,94.712h26.034c7.343,0,13.101,2.17,16.856,5.842c3.087,3.17,4.84,7.51,4.84,12.6v0.166
					c0,9.597-5.758,15.354-13.852,17.69l15.77,22.112h-12.182l-14.354-20.358H82.41v20.358H72.148V94.712z M97.432,123.667
					c7.343,0,12.015-3.838,12.015-9.763v-0.169c0-6.257-4.506-9.679-12.099-9.679H82.41v19.61H97.432z"/>
			</g>
			<g>
				<path fill="#FFFFFF" d="M127.809,124.085v-0.169c0-16.438,12.683-30.206,30.623-30.206c17.942,0,30.459,13.603,30.459,30.04
					v0.166c0,16.44-12.684,30.209-30.625,30.209C140.326,154.125,127.809,140.522,127.809,124.085z M178.125,124.085v-0.169
					c0-11.347-8.26-20.776-19.859-20.776c-11.6,0-19.693,9.263-19.693,20.61v0.166c0,11.35,8.263,20.696,19.859,20.696
					C170.031,144.612,178.125,135.433,178.125,124.085z"/>
			</g>
			<g>
				<path fill="#FFFFFF" d="M199.239,94.712h10.264v29.373l27.788-29.373h12.683l-24.365,25.117l25.451,33.293h-12.517
					L218.6,126.837l-9.097,9.349v16.937h-10.264V94.712z"/>
			</g>
			<g>
				<path fill="#FFFFFF" d="M257.739,94.712h43.31v9.178h-33.048v15.188h29.291v9.18h-29.291v15.687h33.464v9.178h-43.726V94.712z"
					/>
			</g>
			<g>
				<path fill="#FFFFFF" d="M311.562,94.712h26.036c7.344,0,13.102,2.17,16.857,5.842c3.088,3.17,4.84,7.51,4.84,12.6v0.166
					c0,9.597-5.759,15.354-13.851,17.69l15.769,22.112h-12.182l-14.354-20.358h-12.852v20.358h-10.264V94.712z M336.85,123.667
					c7.342,0,12.014-3.838,12.014-9.763v-0.169c0-6.257-4.505-9.679-12.098-9.679h-14.94v19.61H336.85z"/>
			</g>
			<g>
				<path fill="#FFFFFF" d="M365.889,144.612l6.174-7.343c5.592,4.838,11.267,7.593,18.443,7.593c6.34,0,10.348-3.004,10.348-7.344
					v-0.166c0-4.173-2.339-6.426-13.186-8.928c-12.436-3.007-19.441-6.676-19.441-17.441v-0.168
					c0-10.013,8.342-16.938,19.941-16.938c8.512,0,15.273,2.586,21.197,7.344l-5.508,7.759c-5.26-3.921-10.514-6.008-15.855-6.008
					c-6.008,0-9.512,3.087-9.512,6.925v0.169c0,4.506,2.667,6.509,13.934,9.178c12.348,3.004,18.693,7.427,18.693,17.107v0.167
					c0,10.932-8.596,17.44-20.861,17.44C381.325,153.959,372.899,150.87,365.889,144.612z"/>
			</g>
		</g>
		<g>
			<g>
				<path fill="#FFFFFF" d="M431.272,146.671l1.012-1.012c4.492,4.365,10.186,6.833,16.635,6.833
					c8.289,0,13.602-4.493,13.602-10.439v-0.127c0-5.438-3.289-8.35-14.486-10.625c-10.941-2.213-15.119-5.44-15.119-11.641v-0.125
					c0-6.2,6.074-11.323,14.424-11.323c5.818,0,11.008,1.96,15.059,5.06l-0.889,1.139c-3.92-2.974-8.854-4.933-14.297-4.933
					c-7.781,0-12.904,4.806-12.904,9.992v0.129c0,5.375,3.416,8.222,14.297,10.435c11.512,2.343,15.309,5.821,15.309,11.832v0.124
					c0,6.579-5.754,11.766-15.117,11.766C442.026,153.755,436.014,151.163,431.272,146.671z"/>
			</g>
			<g>
				<path fill="#FFFFFF" d="M473.151,108.845h14.23c13.916,0,23.531,9.613,23.531,22.075v0.127c0,12.462-9.615,22.075-23.531,22.075
					h-14.23V108.845z M474.543,110.11v41.747h12.904c13.031,0,22.078-9.172,22.078-20.747v-0.127
					c0-11.639-9.113-20.873-22.205-20.873H474.543z"/>
			</g>
			<g>
				<path fill="#FFFFFF" d="M518.571,131.11v-0.127c0-12.462,9.109-22.898,21.758-22.898c8.352,0,12.717,3.101,16.828,7.021
					l-0.949,0.95c-3.543-3.418-8.031-6.708-15.939-6.708c-11.766,0-20.309,9.996-20.309,21.571v0.127
					c0,11.702,8.67,21.57,20.309,21.57c7.207,0,12.59-3.416,16.131-7.21l1.012,0.948c-3.861,4.048-9.428,7.526-17.209,7.526
					C527.741,153.882,518.571,143.634,518.571,131.11z"/>
			</g>
		</g>
	</g>
	<g opacity="0.3">
		<rect y="179.9" fill="#FFFFFF" width="557.411" height="2.242"/>
	</g>
	<g>
		<path fill="#FFFFFF" d="M20.832,208.859h0.727l-1.018,4.773h-0.825c-0.048-1.47-0.314-2.526-0.799-3.173
			c-0.483-0.646-1.243-0.97-2.276-0.97c-0.502,0-0.961,0.067-1.382,0.206c-0.42,0.138-0.779,0.335-1.078,0.593
			c-0.299,0.259-0.533,0.563-0.702,0.909c-0.17,0.348-0.255,0.723-0.255,1.127c0,0.58,0.161,1.097,0.485,1.551
			c0.323,0.453,0.73,0.875,1.223,1.271s1.025,0.795,1.599,1.2c0.574,0.402,1.107,0.847,1.6,1.331c0.493,0.485,0.9,1.033,1.224,1.648
			c0.322,0.613,0.484,1.331,0.484,2.156c0,0.823-0.162,1.594-0.484,2.313c-0.324,0.72-0.764,1.346-1.321,1.878
			s-1.208,0.952-1.95,1.259c-0.743,0.307-1.542,0.462-2.398,0.462c-1.761,0-3.304-0.693-4.628-2.084l-0.508,1.841H7.7l1.018-6.154
			h0.799c0.113,1.664,0.524,2.932,1.236,3.806c0.711,0.871,1.696,1.307,2.956,1.307c0.581,0,1.114-0.085,1.599-0.254
			c0.484-0.168,0.9-0.402,1.247-0.702c0.347-0.298,0.622-0.655,0.825-1.066c0.201-0.412,0.302-0.86,0.302-1.345
			c0-0.679-0.169-1.276-0.508-1.793s-0.76-1-1.26-1.454c-0.501-0.45-1.05-0.887-1.647-1.307c-0.598-0.42-1.147-0.869-1.648-1.347
			c-0.501-0.475-0.92-1-1.26-1.574c-0.339-0.573-0.509-1.23-0.509-1.975c0-0.694,0.148-1.349,0.449-1.962
			c0.299-0.612,0.706-1.146,1.223-1.598c0.517-0.453,1.123-0.813,1.817-1.08c0.694-0.267,1.437-0.398,2.229-0.398
			c0.76,0,1.438,0.13,2.035,0.388c0.598,0.259,1.179,0.67,1.745,1.235L20.832,208.859z"/>
		<path fill="#FFFFFF" d="M27.494,226.182c0.533,0,0.973-0.039,1.32-0.12c0.347-0.081,0.638-0.229,0.872-0.449
			c0.234-0.217,0.433-0.508,0.594-0.871c0.161-0.363,0.315-0.836,0.461-1.416l2.81-10.685c0.113-0.42,0.197-0.784,0.254-1.09
			c0.057-0.31,0.085-0.574,0.085-0.802c0-0.532-0.187-0.88-0.558-1.04c-0.372-0.162-0.994-0.243-1.865-0.243l0.266-0.97h13.228
			v4.896h-0.92c-0.21-0.777-0.444-1.41-0.703-1.902c-0.259-0.493-0.553-0.881-0.885-1.163c-0.331-0.282-0.702-0.481-1.114-0.593
			c-0.412-0.114-0.868-0.171-1.368-0.171h-3.149l-1.891,7.196h1.527c0.436,0,0.807-0.041,1.115-0.123
			c0.306-0.078,0.584-0.221,0.835-0.422c0.25-0.201,0.485-0.481,0.703-0.836c0.218-0.355,0.457-0.814,0.715-1.382h0.897
			l-1.454,7.172H38.3c0.048-0.485,0.072-0.904,0.072-1.261c0-0.727-0.137-1.255-0.412-1.587c-0.275-0.331-0.784-0.495-1.526-0.495
			h-1.817l-1.381,5.209c-0.146,0.531-0.218,0.984-0.218,1.354c0,0.583,0.258,1.017,0.775,1.299s1.406,0.422,2.666,0.422
			c0.92,0,1.724-0.072,2.411-0.217c0.687-0.146,1.284-0.376,1.793-0.691c0.508-0.315,0.952-0.731,1.332-1.248
			c0.379-0.517,0.739-1.153,1.079-1.913h1.138l-1.889,5.111H27.228L27.494,226.182z"/>
		<path fill="#FFFFFF" d="M57.487,222.136c-0.162,0.567-0.287,1.066-0.375,1.502c-0.09,0.438-0.134,0.76-0.134,0.97
			c0,0.97,0.92,1.454,2.762,1.454l-0.266,1.09h-8.044l0.266-0.97c0.775,0,1.406-0.229,1.89-0.689c0.485-0.46,0.865-1.19,1.14-2.191
			l2.858-10.687c0.21-0.775,0.315-1.379,0.315-1.814c0-0.243-0.041-0.445-0.122-0.606c-0.081-0.162-0.218-0.296-0.411-0.401
			c-0.194-0.104-0.452-0.182-0.775-0.229c-0.323-0.048-0.727-0.081-1.212-0.097l0.268-0.97h6.734c1.938,0,3.465,0.368,4.579,1.104
			s1.671,1.756,1.671,3.065c0,0.661-0.125,1.268-0.375,1.816c-0.25,0.548-0.61,1.04-1.078,1.479
			c-0.469,0.436-1.029,0.808-1.684,1.114c-0.654,0.307-1.377,0.541-2.169,0.7l1.793,4.436c0.339,0.824,0.643,1.494,0.909,2.011
			c0.267,0.517,0.545,0.921,0.836,1.21c0.29,0.291,0.618,0.49,0.981,0.594c0.364,0.107,0.811,0.157,1.344,0.157l-0.266,0.97h-4.604
			l-3.561-9.086h-2.132L57.487,222.136z M58.941,216.831h1.187c0.84,0,1.619-0.096,2.338-0.291c0.718-0.192,1.333-0.473,1.842-0.836
			c0.509-0.364,0.908-0.811,1.198-1.345c0.292-0.532,0.437-1.147,0.437-1.841c0-0.968-0.299-1.699-0.896-2.192
			c-0.598-0.492-1.47-0.739-2.617-0.739c-0.324,0-0.594,0.028-0.812,0.085s-0.404,0.157-0.557,0.302
			c-0.153,0.147-0.287,0.344-0.399,0.594c-0.113,0.252-0.218,0.569-0.315,0.957L58.941,216.831z"/>
		<path fill="#FFFFFF" d="M90.581,213.924c0.92-1.1,1.603-1.934,2.047-2.507c0.444-0.574,0.667-1.022,0.667-1.345
			c0-0.243-0.138-0.405-0.412-0.485c-0.274-0.081-0.695-0.121-1.26-0.121l0.242-0.97h6.274l-0.242,0.97
			c-0.388,0-0.772,0.072-1.151,0.217c-0.38,0.146-0.8,0.396-1.26,0.754c-0.461,0.354-0.973,0.831-1.538,1.427
			c-0.566,0.598-1.212,1.343-1.938,2.229l-10.926,13.302H79.05l3.367-14.876c0.193-0.839,0.29-1.461,0.29-1.866
			c0-0.468-0.153-0.783-0.46-0.943c-0.308-0.162-0.905-0.243-1.793-0.243l0.242-0.97h7.171l-0.242,0.97
			c-0.468,0-0.855,0.035-1.162,0.109c-0.308,0.072-0.566,0.217-0.775,0.436c-0.21,0.217-0.384,0.53-0.521,0.934
			c-0.138,0.402-0.279,0.937-0.424,1.598l-2.447,11.17h0.097L90.581,213.924z"/>
		<path fill="#FFFFFF" d="M106.087,223.082c-0.194,0.711-0.291,1.276-0.291,1.696c0,0.548,0.173,0.92,0.521,1.114
			c0.347,0.193,0.909,0.289,1.684,0.289l-0.292,0.97h-7.729l0.267-0.97c0.484,0,0.896-0.034,1.235-0.106
			c0.339-0.075,0.634-0.215,0.884-0.426c0.251-0.21,0.464-0.501,0.643-0.871c0.178-0.372,0.347-0.855,0.509-1.453l2.834-10.711
			c0.242-0.887,0.364-1.55,0.364-1.985c0-0.502-0.182-0.819-0.545-0.957c-0.363-0.138-0.981-0.206-1.853-0.206l0.266-0.97h7.874
			l-0.266,0.97c-0.533,0-0.978,0.053-1.333,0.158c-0.355,0.104-0.663,0.302-0.921,0.593c-0.259,0.291-0.488,0.694-0.69,1.211
			c-0.203,0.517-0.408,1.187-0.619,2.012L106.087,223.082z"/>
		<path fill="#FFFFFF" d="M130.943,227.151l-6.347-14.585h-0.098l-2.762,10.516c-0.096,0.388-0.145,0.735-0.145,1.042
			c0,0.679,0.202,1.187,0.605,1.525c0.404,0.34,0.969,0.518,1.696,0.532l-0.29,0.97h-6.93l0.266-0.97c0.76,0,1.437-0.269,2.035-0.81
			c0.598-0.541,1.009-1.224,1.236-2.047l2.859-10.759c0.063-0.241,0.096-0.493,0.096-0.751c0-0.775-0.328-1.355-0.981-1.743
			c-0.654-0.39-1.514-0.591-2.58-0.606l0.29-0.97h5.693l6.057,13.883h0.097l2.568-9.813c0.08-0.354,0.12-0.652,0.12-0.896
			c0-0.694-0.197-1.232-0.593-1.611c-0.396-0.379-0.876-0.578-1.442-0.594l0.291-0.97h6.203l-0.267,0.97
			c-0.307,0-0.605,0.072-0.896,0.217c-0.291,0.146-0.557,0.344-0.799,0.596c-0.242,0.25-0.457,0.552-0.642,0.908
			c-0.186,0.355-0.336,0.734-0.449,1.139l-3.924,14.826H130.943z"/>
		<path fill="#FFFFFF" d="M152.724,226.086c0.679,0,1.304-0.093,1.877-0.278c0.574-0.187,1.074-0.46,1.502-0.823
			c0.428-0.363,0.76-0.813,0.994-1.347c0.234-0.532,0.351-1.153,0.351-1.865c0-0.646-0.142-1.121-0.425-1.43
			c-0.282-0.307-0.828-0.46-1.634-0.46l0.218-0.943h6.638l-0.242,0.943c-0.339,0-0.626,0.024-0.86,0.072
			c-0.234,0.051-0.44,0.182-0.619,0.401c-0.177,0.219-0.347,0.545-0.508,0.98c-0.162,0.436-0.339,1.033-0.533,1.793
			c-0.129,0.469-0.25,0.941-0.364,1.417c-0.114,0.477-0.178,0.95-0.193,1.418c-0.372,0.063-0.763,0.173-1.176,0.326
			c-0.412,0.153-0.88,0.312-1.404,0.474c-0.526,0.162-1.127,0.307-1.806,0.436s-1.462,0.194-2.35,0.194
			c-1.098,0-2.083-0.175-2.956-0.521c-0.873-0.349-1.611-0.85-2.217-1.502c-0.605-0.654-1.074-1.445-1.405-2.376
			c-0.331-0.928-0.496-1.975-0.496-3.137c0-1.535,0.294-3,0.883-4.396c0.59-1.397,1.381-2.63,2.375-3.696
			c0.994-1.065,2.14-1.917,3.44-2.555c1.301-0.639,2.661-0.957,4.082-0.957c0.873,0,1.7,0.116,2.484,0.351
			c0.783,0.234,1.571,0.603,2.362,1.104l0.897-1.213h0.895l-0.871,5.331h-0.921c-0.162-1.486-0.61-2.576-1.345-3.271
			c-0.734-0.694-1.837-1.042-3.307-1.042c-1.131,0-2.184,0.267-3.162,0.799c-0.978,0.534-1.829,1.268-2.556,2.205
			c-0.727,0.937-1.296,2.035-1.708,3.295c-0.412,1.261-0.617,2.616-0.617,4.069C148.049,224.019,149.606,226.086,152.724,226.086z"
			/>
		<path fill="#FFFFFF" d="M197.835,222.574c-0.566,0.855-1.119,1.589-1.659,2.204c-0.542,0.613-1.103,1.114-1.685,1.502
			c-0.582,0.388-1.195,0.67-1.841,0.848c-0.646,0.177-1.34,0.267-2.083,0.267c-1.098,0-2.083-0.175-2.956-0.521
			c-0.872-0.349-1.611-0.85-2.216-1.502c-0.605-0.654-1.074-1.445-1.406-2.376c-0.331-0.928-0.496-1.975-0.496-3.137
			c0-1.535,0.283-3,0.848-4.396c0.566-1.397,1.32-2.63,2.266-3.696c0.945-1.065,2.039-1.917,3.282-2.555
			c1.243-0.639,2.544-0.957,3.901-0.957c0.775,0,1.514,0.116,2.217,0.351s1.417,0.603,2.144,1.104l0.896-1.213h0.896l-1.114,6.082
			h-0.921c-0.129-1.76-0.505-3.045-1.126-3.854c-0.622-0.806-1.554-1.21-2.798-1.21c-1.066,0-2.059,0.267-2.981,0.799
			c-0.921,0.534-1.72,1.268-2.398,2.205c-0.678,0.937-1.211,2.035-1.598,3.295c-0.387,1.261-0.582,2.616-0.582,4.069
			c0,4.007,1.558,6.01,4.676,6.01c1.162,0,2.217-0.315,3.161-0.945c0.945-0.631,1.846-1.616,2.702-2.956L197.835,222.574z"/>
		<path fill="#FFFFFF" d="M205.079,226.182c0.533,0,0.973-0.039,1.32-0.12c0.348-0.081,0.639-0.229,0.873-0.449
			c0.234-0.217,0.432-0.508,0.593-0.871c0.162-0.363,0.315-0.836,0.461-1.416l2.738-10.711c0.112-0.451,0.201-0.838,0.266-1.162
			c0.064-0.322,0.098-0.598,0.098-0.823c0-0.436-0.143-0.738-0.425-0.909c-0.282-0.168-0.763-0.254-1.44-0.254h-0.533l0.266-0.97
			h7.874l-0.267,0.97c-0.532,0-0.977,0.053-1.332,0.158c-0.355,0.104-0.663,0.302-0.921,0.593c-0.259,0.291-0.488,0.694-0.691,1.211
			c-0.202,0.517-0.407,1.187-0.618,2.012l-2.52,9.595c-0.145,0.531-0.218,0.984-0.218,1.354c0,0.583,0.198,1.017,0.593,1.299
			c0.396,0.282,1.102,0.422,2.121,0.422c0.969,0,1.805-0.081,2.508-0.24c0.701-0.162,1.32-0.425,1.853-0.788
			c0.533-0.363,0.998-0.832,1.393-1.406c0.396-0.573,0.763-1.28,1.102-2.119h1.139l-2.131,5.596h-14.367L205.079,226.182z"/>
		<path fill="#FFFFFF" d="M233.909,223.082c-0.194,0.711-0.291,1.276-0.291,1.696c0,0.548,0.173,0.92,0.521,1.114
			c0.347,0.193,0.909,0.289,1.684,0.289l-0.291,0.97h-7.729l0.267-0.97c0.484,0,0.896-0.034,1.235-0.106
			c0.339-0.075,0.634-0.215,0.884-0.426c0.251-0.21,0.464-0.501,0.643-0.871c0.178-0.372,0.347-0.855,0.509-1.453l2.834-10.711
			c0.242-0.887,0.364-1.55,0.364-1.985c0-0.502-0.182-0.819-0.545-0.957s-0.981-0.206-1.853-0.206l0.266-0.97h7.874l-0.266,0.97
			c-0.533,0-0.978,0.053-1.333,0.158c-0.356,0.104-0.664,0.302-0.921,0.593c-0.259,0.291-0.488,0.694-0.69,1.211
			c-0.203,0.517-0.408,1.187-0.619,2.012L233.909,223.082z"/>
		<path fill="#FFFFFF" d="M244.351,226.182c0.533,0,0.973-0.039,1.32-0.12c0.347-0.081,0.638-0.229,0.872-0.449
			c0.234-0.217,0.433-0.508,0.594-0.871c0.161-0.363,0.315-0.836,0.461-1.416l2.81-10.685c0.113-0.42,0.197-0.784,0.254-1.09
			c0.057-0.31,0.086-0.574,0.086-0.802c0-0.532-0.187-0.88-0.558-1.04c-0.372-0.162-0.994-0.243-1.865-0.243l0.266-0.97h13.229
			v4.896h-0.921c-0.21-0.777-0.444-1.41-0.702-1.902c-0.259-0.493-0.553-0.881-0.885-1.163c-0.331-0.282-0.702-0.481-1.114-0.593
			c-0.412-0.114-0.868-0.171-1.369-0.171h-3.149l-1.89,7.196h1.527c0.436,0,0.807-0.041,1.114-0.123
			c0.307-0.078,0.584-0.221,0.835-0.422c0.25-0.201,0.485-0.481,0.703-0.836c0.218-0.355,0.457-0.814,0.715-1.382h0.896
			l-1.454,7.172h-0.969c0.048-0.485,0.072-0.904,0.072-1.261c0-0.727-0.137-1.255-0.412-1.587c-0.274-0.331-0.783-0.495-1.525-0.495
			h-1.817l-1.382,5.209c-0.146,0.531-0.218,0.984-0.218,1.354c0,0.583,0.259,1.017,0.775,1.299s1.405,0.422,2.666,0.422
			c0.92,0,1.724-0.072,2.411-0.217c0.686-0.146,1.284-0.376,1.793-0.691c0.508-0.315,0.952-0.731,1.332-1.248
			c0.379-0.517,0.739-1.153,1.078-1.913h1.139l-1.89,5.111h-15.093L244.351,226.182z"/>
		<path fill="#FFFFFF" d="M282.749,227.151l-6.347-14.585h-0.097l-2.762,10.516c-0.096,0.388-0.145,0.735-0.145,1.042
			c0,0.679,0.202,1.187,0.605,1.525c0.404,0.34,0.969,0.518,1.696,0.532l-0.29,0.97h-6.93l0.266-0.97c0.76,0,1.437-0.269,2.035-0.81
			s1.01-1.224,1.236-2.047l2.859-10.759c0.063-0.241,0.096-0.493,0.096-0.751c0-0.775-0.328-1.355-0.981-1.743
			c-0.654-0.39-1.514-0.591-2.58-0.606l0.29-0.97h5.693l6.057,13.883h0.097l2.568-9.813c0.08-0.354,0.12-0.652,0.12-0.896
			c0-0.694-0.197-1.232-0.593-1.611c-0.396-0.379-0.876-0.578-1.442-0.594l0.291-0.97h6.204l-0.268,0.97
			c-0.307,0-0.605,0.072-0.897,0.217c-0.29,0.146-0.557,0.344-0.799,0.596c-0.242,0.25-0.457,0.552-0.642,0.908
			c-0.186,0.355-0.336,0.734-0.449,1.139l-3.924,14.826H282.749z"/>
		<path fill="#FFFFFF" d="M305.016,223.082c-0.099,0.372-0.188,0.689-0.267,0.956c-0.083,0.268-0.123,0.513-0.123,0.74
			c0,0.517,0.21,0.881,0.631,1.091c0.42,0.208,1.138,0.313,2.156,0.313l-0.291,0.97h-8.432l0.268-0.97
			c0.483,0,0.904-0.03,1.259-0.096c0.354-0.063,0.674-0.193,0.959-0.388c0.28-0.192,0.523-0.479,0.727-0.86
			c0.202-0.379,0.39-0.885,0.569-1.513l2.956-11.048c0.145-0.583,0.216-1.066,0.216-1.454c0-0.469-0.105-0.803-0.315-1.007
			c-0.21-0.201-0.55-0.302-1.019-0.302c-1.421,0-2.653,0.363-3.693,1.09c-1.042,0.727-1.911,1.745-2.603,3.052h-0.972l2.304-5.16
			h16.184l-0.486,5.16h-0.919c0-1.55-0.287-2.627-0.858-3.233c-0.574-0.606-1.428-0.908-2.558-0.908
			c-0.402,0-0.749,0.041-1.029,0.12c-0.285,0.081-0.534,0.228-0.753,0.438c-0.217,0.208-0.411,0.499-0.58,0.872
			c-0.168,0.372-0.326,0.847-0.473,1.43L305.016,223.082z"/>
		<path fill="#FFFFFF" d="M333.626,208.859h0.728l-1.016,4.773h-0.826c-0.049-1.47-0.313-2.526-0.799-3.173
			c-0.484-0.646-1.244-0.97-2.277-0.97c-0.501,0-0.961,0.067-1.381,0.206c-0.42,0.138-0.779,0.335-1.079,0.593
			c-0.298,0.259-0.532,0.563-0.701,0.909c-0.171,0.348-0.254,0.723-0.254,1.127c0,0.58,0.16,1.097,0.484,1.551
			c0.322,0.453,0.729,0.875,1.224,1.271c0.49,0.396,1.024,0.795,1.598,1.2c0.574,0.402,1.108,0.847,1.598,1.331
			c0.495,0.485,0.902,1.033,1.226,1.648c0.32,0.613,0.482,1.331,0.482,2.156c0,0.823-0.162,1.594-0.482,2.313
			c-0.324,0.72-0.766,1.346-1.322,1.878s-1.208,0.952-1.949,1.259c-0.744,0.307-1.543,0.462-2.399,0.462
			c-1.76,0-3.304-0.693-4.628-2.084l-0.508,1.841h-0.85l1.02-6.154h0.797c0.114,1.664,0.526,2.932,1.237,3.806
			c0.712,0.871,1.697,1.307,2.956,1.307c0.581,0,1.115-0.085,1.601-0.254c0.482-0.168,0.898-0.402,1.246-0.702
			c0.348-0.298,0.622-0.655,0.825-1.066c0.202-0.412,0.303-0.86,0.303-1.345c0-0.679-0.171-1.276-0.508-1.793
			c-0.341-0.517-0.762-1-1.261-1.454c-0.501-0.45-1.051-0.887-1.646-1.307c-0.6-0.42-1.147-0.869-1.648-1.347
			c-0.501-0.475-0.922-1-1.259-1.574c-0.342-0.573-0.51-1.23-0.51-1.975c0-0.694,0.148-1.349,0.448-1.962
			c0.298-0.612,0.705-1.146,1.222-1.598c0.517-0.453,1.125-0.813,1.817-1.08c0.696-0.267,1.438-0.398,2.229-0.398
			c0.762,0,1.438,0.13,2.036,0.388c0.597,0.259,1.178,0.67,1.746,1.235L333.626,208.859z"/>
		<path fill="#FFFFFF" d="M366.891,208.859h0.728l-1.019,4.773h-0.824c-0.049-1.47-0.314-2.526-0.797-3.173
			c-0.486-0.646-1.244-0.97-2.277-0.97c-0.504,0-0.963,0.067-1.385,0.206c-0.42,0.138-0.779,0.335-1.076,0.593
			c-0.298,0.259-0.535,0.563-0.701,0.909c-0.17,0.348-0.256,0.723-0.256,1.127c0,0.58,0.16,1.097,0.484,1.551
			c0.324,0.453,0.73,0.875,1.223,1.271c0.494,0.396,1.027,0.795,1.602,1.2c0.573,0.402,1.105,0.847,1.598,1.331
			c0.492,0.485,0.9,1.033,1.225,1.648c0.321,0.613,0.483,1.331,0.483,2.156c0,0.823-0.162,1.594-0.483,2.313
			c-0.324,0.72-0.765,1.346-1.32,1.878c-0.559,0.532-1.209,0.952-1.951,1.259s-1.543,0.462-2.396,0.462
			c-1.764,0-3.307-0.693-4.629-2.084l-0.508,1.841h-0.85l1.018-6.154h0.799c0.115,1.664,0.525,2.932,1.235,3.806
			c0.712,0.871,1.696,1.307,2.956,1.307c0.582,0,1.116-0.085,1.6-0.254c0.484-0.168,0.9-0.402,1.246-0.702
			c0.348-0.298,0.621-0.655,0.826-1.066c0.201-0.412,0.301-0.86,0.301-1.345c0-0.679-0.168-1.276-0.508-1.793
			c-0.339-0.517-0.76-1-1.258-1.454c-0.504-0.45-1.051-0.887-1.648-1.307s-1.148-0.869-1.649-1.347
			c-0.499-0.475-0.919-1-1.259-1.574c-0.34-0.573-0.51-1.23-0.51-1.975c0-0.694,0.148-1.349,0.451-1.962
			c0.297-0.612,0.705-1.146,1.221-1.598c0.518-0.453,1.123-0.813,1.818-1.08c0.693-0.267,1.436-0.398,2.229-0.398
			c0.76,0,1.436,0.13,2.035,0.388c0.596,0.259,1.178,0.67,1.743,1.235L366.891,208.859z"/>
		<path fill="#FFFFFF" d="M379.344,223.082c-0.193,0.711-0.291,1.276-0.291,1.696c0,0.548,0.174,0.92,0.521,1.114
			c0.348,0.193,0.908,0.289,1.684,0.289l-0.291,0.97h-7.729l0.268-0.97c0.483,0,0.895-0.034,1.234-0.106
			c0.34-0.075,0.633-0.215,0.885-0.426c0.252-0.21,0.464-0.501,0.641-0.871c0.18-0.372,0.35-0.855,0.511-1.453l2.835-10.711
			c0.241-0.887,0.363-1.55,0.363-1.985c0-0.502-0.184-0.819-0.547-0.957s-0.98-0.206-1.852-0.206l0.266-0.97h7.873l-0.266,0.97
			c-0.533,0-0.977,0.053-1.332,0.158c-0.354,0.104-0.663,0.302-0.922,0.593c-0.258,0.291-0.488,0.694-0.689,1.211
			s-0.406,1.187-0.617,2.012L379.344,223.082z"/>
		<path fill="#FFFFFF" d="M404.202,227.151l-6.348-14.585h-0.096l-2.764,10.516c-0.096,0.388-0.145,0.735-0.145,1.042
			c0,0.679,0.201,1.187,0.604,1.525c0.406,0.34,0.971,0.518,1.697,0.532l-0.291,0.97h-6.928l0.266-0.97
			c0.76,0,1.438-0.269,2.033-0.81c0.601-0.541,1.012-1.224,1.238-2.047l2.859-10.759c0.063-0.241,0.096-0.493,0.096-0.751
			c0-0.775-0.326-1.355-0.98-1.743c-0.654-0.39-1.514-0.591-2.582-0.606l0.291-0.97h5.695l6.056,13.883H405l2.57-9.813
			c0.078-0.354,0.117-0.652,0.117-0.896c0-0.694-0.196-1.232-0.59-1.611c-0.398-0.379-0.877-0.578-1.443-0.594l0.291-0.97h6.203
			l-0.268,0.97c-0.307,0-0.606,0.072-0.896,0.217c-0.292,0.146-0.558,0.344-0.802,0.596c-0.24,0.25-0.455,0.552-0.639,0.908
			c-0.188,0.355-0.338,0.734-0.451,1.139l-3.924,14.826H404.202z"/>
		<path fill="#FFFFFF" d="M432.717,222.574c-0.564,0.855-1.119,1.589-1.659,2.204c-0.543,0.613-1.104,1.114-1.687,1.502
			c-0.58,0.388-1.195,0.67-1.838,0.848c-0.648,0.177-1.34,0.267-2.085,0.267c-1.099,0-2.085-0.175-2.956-0.521
			c-0.871-0.349-1.611-0.85-2.215-1.502c-0.607-0.654-1.075-1.445-1.406-2.376c-0.332-0.928-0.496-1.975-0.496-3.137
			c0-1.535,0.281-3,0.847-4.396c0.565-1.397,1.32-2.63,2.267-3.696c0.943-1.065,2.037-1.917,3.281-2.555
			c1.244-0.639,2.545-0.957,3.902-0.957c0.773,0,1.514,0.116,2.215,0.351c0.705,0.234,1.418,0.603,2.146,1.104l0.895-1.213h0.896
			l-1.112,6.082h-0.922c-0.129-1.76-0.506-3.045-1.127-3.854c-0.622-0.806-1.555-1.21-2.799-1.21c-1.063,0-2.058,0.267-2.979,0.799
			c-0.922,0.534-1.719,1.268-2.398,2.205c-0.678,0.937-1.213,2.035-1.598,3.295c-0.391,1.261-0.582,2.616-0.582,4.069
			c0,4.007,1.559,6.01,4.676,6.01c1.16,0,2.216-0.315,3.162-0.945c0.943-0.631,1.844-1.616,2.701-2.956L432.717,222.574z"/>
		<path fill="#FFFFFF" d="M439.938,226.182c0.531,0,0.973-0.039,1.318-0.12c0.348-0.081,0.639-0.229,0.873-0.449
			c0.234-0.217,0.432-0.508,0.594-0.871s0.314-0.836,0.459-1.416l2.813-10.685c0.113-0.42,0.195-0.784,0.254-1.09
			c0.057-0.31,0.084-0.574,0.084-0.802c0-0.532-0.186-0.88-0.559-1.04c-0.371-0.162-0.992-0.243-1.865-0.243l0.268-0.97h13.229
			v4.896h-0.92c-0.209-0.777-0.445-1.41-0.705-1.902c-0.258-0.493-0.551-0.881-0.885-1.163c-0.328-0.282-0.699-0.481-1.111-0.593
			c-0.412-0.114-0.869-0.171-1.371-0.171h-3.148l-1.891,7.196h1.527c0.436,0,0.807-0.041,1.115-0.123
			c0.307-0.078,0.584-0.221,0.834-0.422c0.252-0.201,0.486-0.481,0.705-0.836c0.217-0.355,0.455-0.814,0.713-1.382h0.898
			l-1.453,7.172h-0.971c0.049-0.485,0.072-0.904,0.072-1.261c0-0.727-0.137-1.255-0.412-1.587c-0.275-0.331-0.783-0.495-1.525-0.495
			h-1.818l-1.381,5.209c-0.145,0.531-0.219,0.984-0.219,1.354c0,0.583,0.258,1.017,0.775,1.299c0.516,0.282,1.406,0.422,2.666,0.422
			c0.92,0,1.727-0.072,2.41-0.217c0.686-0.146,1.285-0.376,1.793-0.691c0.51-0.315,0.953-0.731,1.332-1.248
			c0.381-0.517,0.74-1.153,1.08-1.913h1.139l-1.891,5.111H439.67L439.938,226.182z"/>
		<path fill="#FFFFFF" d="M484.198,220.658c-0.162,0.646-0.311,1.261-0.445,1.841c-0.139,0.583-0.207,1.108-0.207,1.577
			c0,0.321,0.039,0.612,0.121,0.871c0.08,0.258,0.221,0.481,0.424,0.665c0.203,0.187,0.467,0.329,0.801,0.425
			c0.33,0.097,0.746,0.145,1.246,0.145l-0.266,0.97h-8.963l0.266-0.97c0.564,0,1.061-0.048,1.49-0.145
			c0.428-0.096,0.799-0.273,1.113-0.531c0.316-0.259,0.584-0.606,0.813-1.043c0.225-0.438,0.42-0.985,0.582-1.648l2.471-9.957
			c0.018-0.081,0.027-0.153,0.035-0.217c0.008-0.065,0.012-0.122,0.012-0.171c0-0.21-0.119-0.315-0.363-0.315
			c-0.275,0-0.697,0.066-1.271,0.195c-0.572,0.129-1.33,0.192-2.266,0.192l0.146-1.018c0.693,0,1.34-0.088,1.938-0.266
			c0.598-0.177,1.164-0.42,1.697-0.727c0.531-0.307,1.033-0.654,1.502-1.042c0.467-0.388,0.922-0.799,1.354-1.235h0.898
			L484.198,220.658z"/>
		<path fill="#FFFFFF" d="M497.282,215.014c0-0.904,0.182-1.765,0.545-2.581c0.363-0.814,0.852-1.532,1.465-2.154
			s1.322-1.114,2.119-1.478c0.803-0.363,1.646-0.546,2.533-0.546c0.791,0,1.506,0.158,2.145,0.471
			c0.639,0.315,1.18,0.769,1.623,1.357c0.443,0.59,0.789,1.306,1.029,2.144c0.244,0.841,0.363,1.778,0.363,2.812
			c0,1.598-0.266,3.142-0.799,4.628c-0.531,1.484-1.248,2.803-2.143,3.948c-0.898,1.146-1.922,2.064-3.078,2.749
			c-1.156,0.688-2.354,1.031-3.598,1.031c-0.531,0-1.031-0.065-1.49-0.194c-0.461-0.129-0.859-0.311-1.201-0.545
			c-0.336-0.234-0.604-0.508-0.797-0.823s-0.293-0.659-0.293-1.029c0-0.421,0.119-0.755,0.354-1.007
			c0.232-0.25,0.553-0.375,0.955-0.375c0.34,0,0.623,0.109,0.85,0.326c0.227,0.219,0.338,0.555,0.338,1.005
			c0,0.52,0.09,0.907,0.268,1.165c0.18,0.259,0.516,0.388,1.018,0.388c0.646,0,1.285-0.178,1.914-0.534
			c0.631-0.354,1.223-0.848,1.779-1.479c0.559-0.628,1.055-1.381,1.49-2.252c0.436-0.872,0.791-1.833,1.066-2.884l-0.072-0.048
			c-1.051,0.646-2.156,0.97-3.32,0.97c-0.758,0-1.449-0.123-2.072-0.363c-0.621-0.243-1.152-0.587-1.598-1.031
			c-0.443-0.442-0.787-0.977-1.029-1.599C497.405,216.464,497.282,215.773,497.282,215.014z M502.782,218.892
			c0.582,0,1.109-0.134,1.586-0.4c0.477-0.268,0.883-0.638,1.225-1.115c0.338-0.477,0.6-1.053,0.787-1.731
			c0.186-0.679,0.277-1.43,0.277-2.253c0-1.31-0.217-2.31-0.652-3.006c-0.438-0.694-1.074-1.04-1.914-1.04
			c-0.566,0-1.088,0.148-1.563,0.446c-0.477,0.301-0.889,0.712-1.234,1.237c-0.352,0.523-0.623,1.139-0.826,1.841
			c-0.201,0.703-0.303,1.465-0.303,2.288C500.165,217.647,501.038,218.892,502.782,218.892z"/>
		<path fill="#FFFFFF" d="M523.543,210.677c-0.58,0-1.057,0.018-1.43,0.048c-0.371,0.033-0.684,0.11-0.932,0.23
			c-0.25,0.122-0.465,0.296-0.643,0.521c-0.178,0.229-0.371,0.543-0.58,0.946l-0.51,0.943h-1.043l2.254-5.74h0.727
			c0,0.032-0.004,0.062-0.014,0.085c-0.006,0.024-0.01,0.06-0.01,0.107c0,0.243,0.133,0.416,0.4,0.521
			c0.266,0.104,0.723,0.157,1.367,0.157h7.342l-0.072,0.486c-0.484,0.709-1.01,1.534-1.574,2.47
			c-0.566,0.937-1.195,2.016-1.893,3.235c-0.693,1.22-1.461,2.588-2.301,4.105c-0.838,1.52-1.775,3.207-2.809,5.063
			c-0.389,0.694-0.727,1.272-1.02,1.732c-0.289,0.462-0.557,0.823-0.797,1.09c-0.244,0.268-0.473,0.453-0.693,0.559
			c-0.219,0.105-0.445,0.157-0.689,0.157c-0.338,0-0.619-0.09-0.836-0.267c-0.217-0.178-0.326-0.421-0.326-0.727
			c0-0.162,0.045-0.349,0.131-0.559c0.09-0.208,0.268-0.523,0.535-0.943c0.268-0.421,0.646-0.99,1.139-1.708s1.15-1.659,1.975-2.822
			l6.809-9.692H523.543z"/>
		<path fill="#FFFFFF" d="M548.254,220.394c0,0.937-0.18,1.828-0.543,2.675c-0.363,0.85-0.854,1.592-1.467,2.229
			c-0.613,0.639-1.32,1.146-2.119,1.527c-0.801,0.379-1.645,0.569-2.533,0.569c-0.789,0-1.506-0.157-2.143-0.473
			c-0.639-0.315-1.178-0.767-1.625-1.357c-0.441-0.589-0.785-1.301-1.029-2.132c-0.24-0.83-0.363-1.771-0.363-2.822
			c0-1.599,0.268-3.143,0.801-4.627c0.533-1.486,1.246-2.802,2.143-3.949s1.922-2.063,3.078-2.75s2.354-1.029,3.6-1.029
			c0.531,0,1.029,0.064,1.488,0.193s0.857,0.311,1.199,0.545c0.338,0.234,0.605,0.508,0.799,0.823
			c0.195,0.315,0.291,0.659,0.291,1.031c0,0.42-0.117,0.755-0.352,1.005s-0.555,0.374-0.957,0.374c-0.34,0-0.621-0.106-0.848-0.326
			c-0.225-0.219-0.338-0.554-0.338-1.005c0-0.517-0.09-0.904-0.268-1.162c-0.178-0.259-0.518-0.388-1.016-0.388
			c-0.648,0-1.285,0.169-1.916,0.508c-0.629,0.34-1.225,0.816-1.781,1.43c-0.555,0.613-1.059,1.34-1.502,2.181
			c-0.445,0.839-0.797,1.77-1.055,2.785l0.074,0.048c1.049-0.646,2.154-0.968,3.32-0.968c0.758,0,1.449,0.121,2.07,0.363
			c0.621,0.241,1.154,0.585,1.598,1.029c0.445,0.444,0.789,0.979,1.029,1.599C548.135,218.944,548.254,219.634,548.254,220.394z
			 M542.754,216.516c-0.58,0-1.109,0.138-1.584,0.412c-0.477,0.275-0.885,0.663-1.227,1.162c-0.336,0.502-0.6,1.108-0.785,1.817
			c-0.188,0.712-0.279,1.495-0.279,2.352c0,1.307,0.219,2.31,0.652,3.004c0.439,0.693,1.076,1.042,1.916,1.042
			c0.551,0,1.066-0.153,1.551-0.462c0.484-0.307,0.9-0.733,1.248-1.283s0.621-1.191,0.822-1.927c0.205-0.733,0.305-1.53,0.305-2.386
			C545.374,217.76,544.5,216.516,542.754,216.516z"/>
	</g>
</g>
</svg>
